<?xml version="1.0" encoding="UTF-8"?>
<svg width="92px" height="92px" viewBox="0 0 92 92" version="1.1" xmlns="http://www.w3.org/2000/svg" xmlns:xlink="http://www.w3.org/1999/xlink">
    <!-- Generator: Sketch 50 (54983) - http://www.bohemiancoding.com/sketch -->
    <title>net</title>
    <desc>Created with Sketch.</desc>
    <defs></defs>
    <g id="Page-1" stroke="none" stroke-width="1" fill="none" fill-rule="evenodd">
        <g id="Group" transform="translate(3.000000, 3.000000)" fill="#000000" fill-rule="nonzero">
            <path d="M43,0.354041124 C19.2749064,0.354041124 0,19.6339743 0,43.3652771 C0,67.096531 19.2749064,86.376513 43,86.376513 C66.7250936,86.376513 86,67.096531 86,43.3652771 C86,19.6339743 66.7250936,0.354041124 43,0.354041124 Z M40.984375,4.32524899 C41.0045664,4.32422747 41.0252553,4.3262402 41.0454545,4.32524899 L41.0454545,22.8371872 L23.2713068,22.8371872 C25.9345294,15.8579318 29.8906369,9.7882263 34.7542614,5.15003831 C34.7644411,5.15011786 34.7746214,5.15011786 34.7848011,5.15003831 C36.8023973,4.71899339 38.8640597,4.43250533 40.984375,4.32524899 Z M44.9545455,4.32524899 C47.10607,4.43078976 49.2000742,4.71128754 51.2457386,5.15003831 C56.1093631,9.7882263 60.0654706,15.8579318 62.7286932,22.8371872 L44.9545455,22.8371872 L44.9545455,4.32524899 Z M58.6058239,7.50221528 C65.954388,10.6978934 72.1179748,16.0800233 76.2883523,22.8371872 L66.912642,22.8371872 C64.9035413,17.1391887 62.0784658,11.9519398 58.6058239,7.50221528 Z M27.3941761,7.53276303 C23.9283009,11.9782509 21.093608,17.1472728 19.087358,22.8371872 L9.71164773,22.8371872 C13.8785275,16.089694 20.0574204,10.7301294 27.3941761,7.53276303 Z M7.60440341,26.7472996 L17.865767,26.7472996 C16.5851137,31.3858531 15.8220064,36.303576 15.6669034,41.4102209 L3.93963068,41.4102209 C4.19625664,36.1799168 5.4943807,31.2367811 7.60440341,26.7472996 Z M21.9275568,26.7472996 L41.0454545,26.7472996 L41.0454545,41.4102209 L19.5759943,41.4102209 C19.7426946,36.268428 20.5594933,31.3463248 21.9275568,26.7472996 Z M44.9545455,26.7472996 L64.0724432,26.7472996 C65.4405067,31.3463248 66.2573054,36.268428 66.4240057,41.4102209 L44.9545455,41.4102209 L44.9545455,26.7472996 Z M68.134233,26.7472996 L78.3955966,26.7472996 C80.5042707,31.2367811 81.8039427,36.1799168 82.0603693,41.4102209 L70.3330966,41.4102209 C70.1779936,36.303576 69.4148863,31.3858531 68.134233,26.7472996 Z M3.93963068,45.3203333 L15.6669034,45.3203333 C15.820691,50.4330779 16.583511,55.3432181 17.865767,59.9832546 L7.60440341,59.9832546 C5.49574107,55.4950566 4.1961638,50.5487498 3.93963068,45.3203333 Z M19.5759943,45.3203333 L41.0454545,45.3203333 L41.0454545,59.9832546 L21.9275568,59.9832546 C20.5645135,55.3970066 19.7423545,50.4508249 19.5759943,45.3203333 Z M44.9545455,45.3203333 L66.4240057,45.3203333 C66.2576455,50.4508249 65.4354865,55.3970066 64.0724432,59.9832546 L44.9545455,59.9832546 L44.9545455,45.3203333 Z M70.3330966,45.3203333 L82.0603693,45.3203333 C81.8040356,50.5487498 80.5029103,55.4950566 78.3955966,59.9832546 L68.134233,59.9832546 C69.416489,55.3432181 70.179309,50.4330779 70.3330966,45.3203333 Z M9.71164773,63.893367 L19.0568182,63.893367 C21.0718011,69.614269 23.9325315,74.7953761 27.4247159,79.2588866 C20.0705979,76.0636357 13.8859939,70.6529502 9.71164773,63.893367 Z M23.2713068,63.893367 L41.0454545,63.893367 L41.0454545,82.4053052 C38.9166389,82.3008827 36.8408989,82.0418162 34.8153409,81.6110636 C34.7954334,81.590251 34.7750685,81.5698808 34.7542614,81.5499681 C29.890633,76.9117537 25.9345284,70.8645714 23.2713068,63.893367 Z M44.9545455,63.893367 L62.7286932,63.893367 C60.0654716,70.8645714 56.109367,76.9117537 51.2457386,81.5499681 C51.2352039,81.5701539 51.2250224,81.5905221 51.2151989,81.6110636 C49.180775,82.0454008 47.0935189,82.3003802 44.9545455,82.4053052 L44.9545455,63.893367 Z M66.9431818,63.893367 L76.2883523,63.893367 C72.1126232,70.6592025 65.9363055,76.0647422 58.5752841,79.2588866 C62.0674685,74.7953761 64.9281989,69.614269 66.9431818,63.893367 Z" id="Shape"></path>
        </g>
    </g>
</svg>