<?xml version="1.0" encoding="UTF-8"?>
<svg width="92px" height="92px" viewBox="0 0 92 92" version="1.1" xmlns="http://www.w3.org/2000/svg" xmlns:xlink="http://www.w3.org/1999/xlink">
    <!-- Generator: Sketch 50 (54983) - http://www.bohemiancoding.com/sketch -->
    <title>remaining</title>
    <desc>Created with Sketch.</desc>
    <defs></defs>
    <g id="Page-1" stroke="none" stroke-width="1" fill="none" fill-rule="evenodd">
        <path d="M14.8032551,22.5914541 C14.7873512,22.5795206 14.7793993,22.5735539 14.7793993,22.5735539 C21.729469,13.3106948 32.7166672,7.26583584 45.1714207,7.00855018 C45.4469328,7.00288513 45.7231295,7 46,7 C67.5391052,7 85,24.4608948 85,46 C85,67.5391052 67.5391052,85 46,85 C24.4608948,85 7,67.5391052 7,46 C7,37.2165031 9.90366213,29.1111929 14.803453,22.5916026 Z M17.2031874,24.3922486 C12.6803035,30.4103319 10,37.8921567 10,46 C10,65.882251 26.117749,82 46,82 C65.882251,82 82,65.882251 82,46 C82,26.117749 65.882251,10 46,10 L46,46 C30.9855811,34.7338979 21.3866436,27.5313141 17.2031874,24.3922486 Z" id="Combined-Shape" fill="#000000"></path>
    </g>
</svg>