<?xml version="1.0" encoding="UTF-8"?>
<svg width="92px" height="92px" viewBox="0 0 92 92" version="1.1" xmlns="http://www.w3.org/2000/svg" xmlns:xlink="http://www.w3.org/1999/xlink">
    <!-- Generator: Sketch 50 (54983) - http://www.bohemiancoding.com/sketch -->
    <title>call</title>
    <desc>Created with Sketch.</desc>
    <defs></defs>
    <g id="Page-1" stroke="none" stroke-width="1" fill="none" fill-rule="evenodd">
        <path d="M33.9225455,4.1602592 C32.7669272,3.85137548 31.4957822,3.9811814 30.3906437,4.61777411 L20.9153017,10.0756717 C17.9970244,11.7566584 16.2371242,14.6566315 15.4863554,18.0581923 C14.7355865,21.4597531 14.8936843,25.4137026 15.6883288,29.7172437 C17.2776346,38.3243312 21.4427009,48.3523823 26.8414704,57.6815884 C32.240233,67.0108283 38.8623687,75.6235872 45.5390338,81.3002856 C48.877368,84.1386178 52.2304535,86.2522456 55.5585426,87.3043192 C58.8866351,88.3563928 62.2838482,88.2858491 65.2021527,86.6048624 L74.6774982,81.1469651 C76.8878331,79.8738137 77.6600425,76.9990882 76.3837375,74.7939846 L68.4012854,61.0000326 C67.1251268,58.7953707 64.2440256,58.0246226 62.0335204,59.29774 L53.6743624,64.1127242 C44.3783952,56.522102 36.7468046,42.5168246 34.6836139,31.2772594 L43.0346215,26.4669985 C45.2457534,25.1942559 46.0174247,22.3191566 44.7408608,20.1139851 L36.7584053,6.32006664 C36.1202477,5.21746388 35.0781671,4.46924487 33.9225455,4.1602592 Z M32.093443,7.56025723 C32.7199658,7.19941681 33.4469236,7.39307264 33.8090759,8.01889349 L41.791528,21.8128456 C42.1534146,22.4379868 41.9580454,23.1640505 41.3318256,23.5245167 L31.8564836,28.982413 C31.2492103,29.3333651 30.9198829,30.0200177 31.0269553,30.711992 C33.0040671,43.4847962 41.4397366,59.1810846 52.3735413,67.5714744 C52.9191671,67.9904756 53.6639918,68.040493 54.2609776,67.6982221 L63.7363197,62.2403248 C64.3634522,61.8791109 65.089412,62.0728004 65.4519526,62.698961 L73.4344047,76.4929131 C73.7966251,77.118734 73.6018076,77.8433364 72.9747023,78.2045503 L63.4993602,83.6624476 C61.5033794,84.8121815 59.2726291,84.9172835 56.5861445,84.0680401 C53.8996632,83.2187628 50.8545514,81.3535672 47.7434117,78.7083808 C41.5211221,73.4180079 35.0382901,65.050623 29.79081,55.9828298 C24.5433257,46.9150026 20.5215932,37.1300147 19.0404469,29.1086849 C18.2998721,25.0979888 18.2034017,21.5343745 18.8094207,18.7885715 C19.4154533,16.0428024 20.6221473,14.1679224 22.6180866,13.0182225 L32.0934294,7.56032519 L32.093443,7.56025723 Z" id="Shape" fill="#000000" fill-rule="nonzero"></path>
    </g>
</svg>