<?xml version="1.0" encoding="UTF-8"?>
<svg width="92px" height="92px" viewBox="0 0 92 92" version="1.1" xmlns="http://www.w3.org/2000/svg" xmlns:xlink="http://www.w3.org/1999/xlink">
    <!-- Generator: Sketch 50 (54983) - http://www.bohemiancoding.com/sketch -->
    <title>airtime</title>
    <desc>Created with Sketch.</desc>
    <defs></defs>
    <g id="Page-1" stroke="none" stroke-width="1" fill="none" fill-rule="evenodd">
        <path d="M70.216,12 L21.784,12 C13.0667375,12 6,19.1289538 6,27.922964 L6,56.8635363 C6,65.6575465 13.0667375,72.7865004 21.784,72.7865004 L45.408,72.7865004 L64.744,87.3132795 C66.256,88.4512106 67.528,89 68.472,89 C70.232,89 70.872,87.1276596 69.912,83.7138665 L66.8,72.7865004 L70.208,72.7865004 C74.395563,72.7886415 78.4123407,71.1119936 81.3741454,68.1256265 C84.33595,65.1392594 86.0000005,61.0879676 86,56.8635363 L86,27.922964 C86,23.6999314 84.3370476,19.6498632 81.3769734,16.6637282 C78.4168992,13.6775932 74.4021771,12 70.216,12 Z M81.2,56.8635363 C81.191188,62.9795544 76.2786419,67.9353511 70.216,67.9442406 L60.44,67.9442406 L62.192,74.1181218 L64.088,80.8085106 L48.28,68.9046222 L47,67.9442406 L21.784,67.9442406 C15.7213581,67.9353511 10.808812,62.9795544 10.8,56.8635363 L10.8,27.922964 C10.808812,21.806946 15.7213581,16.8511493 21.784,16.8422597 L70.216,16.8422597 C76.2786419,16.8511493 81.191188,21.806946 81.2,27.922964 L81.2,56.8635363 Z" id="Shape" fill="#000000" fill-rule="nonzero"></path>
    </g>
</svg>