<?xml version="1.0" encoding="UTF-8"?>
<svg width="92px" height="92px" viewBox="0 0 92 92" version="1.1" xmlns="http://www.w3.org/2000/svg" xmlns:xlink="http://www.w3.org/1999/xlink">
    <!-- Generator: Sketch 50 (54983) - http://www.bohemiancoding.com/sketch -->
    <title>sms</title>
    <desc>Created with Sketch.</desc>
    <defs></defs>
    <g id="Page-1" stroke="none" stroke-width="1" fill="none" fill-rule="evenodd">
        <path d="M84,19 L8,19 C6.896,19 6,19.896 6,21 L6,71 C6,72.104 6.896,73 8,73 L84,73 C85.104,73 86,72.104 86,71 L86,21 C86,19.896 85.104,19 84,19 Z M46,53.281 L13.124,23 L78.877,23 L46,53.281 Z M32.191,46 L10,66.439 L10,25.561 L32.191,46 Z M35.143,48.719 L44.645,57.471 C45.028,57.824 45.514,58 46,58 C46.486,58 46.972,57.824 47.355,57.471 L56.857,48.719 L78.876,69 L13.124,69 L35.143,48.719 Z M59.809,46 L82,25.561 L82,66.438 L59.809,46 Z" id="Shape" fill="#000000" fill-rule="nonzero"></path>
    </g>
</svg>